<svg xmlns="http://www.w3.org/2000/svg" width="375" viewBox="0 0 375 375" height="375" version="1.0"><path fill="#FFF" d="M 12.195312 187.964844 C 12.195312 187.964844 156.8125 178.058594 157.800781 333.695312 C 2.289062 332.710938 12.195312 187.964844 12.195312 187.964844 Z M 12.195312 187.964844"/><path fill="#FFF" d="M 166.261719 342.167969 L 157.753906 342.105469 C 107.589844 341.789062 68.578125 326.984375 41.785156 298.09375 C -0.152344 252.863281 3.632812 190.042969 3.8125 187.398438 L 4.316406 180.09375 L 11.621094 179.574219 C 11.621094 179.574219 13.679688 179.429688 17.320312 179.429688 C 42.019531 179.429688 165.277344 186.871094 166.214844 333.640625 Z M 20.539062 196.289062 C 21.011719 213.460938 25.273438 255.628906 54.210938 286.765625 C 76.1875 310.394531 108.113281 323.261719 149.183594 325.070312 C 144.136719 209.695312 53.714844 197.003906 20.539062 196.289062 Z M 20.539062 196.289062"/><path fill="#FFF" d="M 184.457031 34.816406 C 184.457031 34.816406 293.722656 130.148438 184.457031 240.90625 C 75.199219 130.148438 184.457031 34.816406 184.457031 34.816406 Z M 184.457031 34.816406"/><path fill="#FFF" d="M 184.457031 252.871094 L 178.480469 246.8125 C 143.230469 211.085938 126.105469 173.003906 127.578125 133.625 C 129.886719 71.960938 176.933594 30.21875 178.933594 28.472656 L 184.457031 23.65625 L 189.980469 28.472656 C 191.984375 30.21875 239.03125 71.960938 241.339844 133.625 C 242.808594 173.003906 225.6875 211.085938 190.4375 246.8125 Z M 184.457031 46.625 C 172.640625 59.117188 145.894531 91.9375 144.371094 134.402344 C 143.210938 166.667969 156.691406 198.355469 184.457031 228.703125 C 212.226562 198.355469 225.703125 166.667969 224.546875 134.402344 C 223.019531 91.9375 196.28125 59.117188 184.457031 46.625 Z M 184.457031 46.625"/><path fill="#FFF" d="M 360.789062 187.964844 C 360.789062 187.964844 216.1875 178.058594 215.1875 333.695312 C 370.707031 332.710938 360.789062 187.964844 360.789062 187.964844 Z M 360.789062 187.964844"/><path fill="#FFF" d="M 206.722656 342.167969 L 206.78125 333.640625 C 207.71875 186.871094 330.972656 179.429688 355.667969 179.429688 C 359.304688 179.429688 361.367188 179.574219 361.367188 179.574219 L 368.652344 180.09375 L 369.179688 187.398438 C 369.359375 190.042969 373.148438 252.855469 331.203125 298.09375 C 304.421875 326.984375 265.402344 341.789062 215.230469 342.105469 Z M 352.472656 196.289062 C 319.300781 197.003906 228.855469 209.675781 223.800781 325.066406 C 264.945312 323.261719 296.898438 310.355469 318.882812 286.644531 C 347.851562 255.410156 352.035156 213.410156 352.472656 196.289062 Z M 352.472656 196.289062"/></svg>