<svg xmlns="http://www.w3.org/2000/svg" xmlns:xlink="http://www.w3.org/1999/xlink" width="150" viewBox="0 0 150 45" height="45" version="1.0"><defs><g id="f"><path d="M 6.453125 -3.203125 C 6.453125 -2.546875 6.335938 -1.96875 6.109375 -1.46875 C 5.890625 -0.976562 5.5625 -0.59375 5.125 -0.3125 C 4.6875 -0.0390625 4.144531 0.09375 3.5 0.09375 C 2.84375 0.09375 2.289062 -0.0390625 1.84375 -0.3125 C 1.40625 -0.59375 1.078125 -0.976562 0.859375 -1.46875 C 0.648438 -1.96875 0.546875 -2.550781 0.546875 -3.21875 C 0.546875 -3.875 0.648438 -4.445312 0.859375 -4.9375 C 1.078125 -5.425781 1.40625 -5.804688 1.84375 -6.078125 C 2.289062 -6.359375 2.847656 -6.5 3.515625 -6.5 C 4.148438 -6.5 4.6875 -6.363281 5.125 -6.09375 C 5.5625 -5.820312 5.890625 -5.4375 6.109375 -4.9375 C 6.335938 -4.445312 6.453125 -3.867188 6.453125 -3.203125 Z M 1.40625 -3.203125 C 1.40625 -2.398438 1.570312 -1.765625 1.90625 -1.296875 C 2.25 -0.835938 2.78125 -0.609375 3.5 -0.609375 C 4.226562 -0.609375 4.757812 -0.835938 5.09375 -1.296875 C 5.4375 -1.765625 5.609375 -2.398438 5.609375 -3.203125 C 5.609375 -4.015625 5.4375 -4.648438 5.09375 -5.109375 C 4.757812 -5.566406 4.234375 -5.796875 3.515625 -5.796875 C 2.785156 -5.796875 2.25 -5.566406 1.90625 -5.109375 C 1.570312 -4.648438 1.40625 -4.015625 1.40625 -3.203125 Z M 1.40625 -3.203125"/></g><g id="g"><path d="M 5.765625 0 L 4.953125 0 L 4.953125 -2.984375 L 1.671875 -2.984375 L 1.671875 0 L 0.875 0 L 0.875 -6.40625 L 1.671875 -6.40625 L 1.671875 -3.6875 L 4.953125 -3.6875 L 4.953125 -6.40625 L 5.765625 -6.40625 Z M 5.765625 0"/></g><g id="h"><path d="M 5.484375 0 L 4.671875 0 L 4.671875 -5.6875 L 2.640625 -5.6875 C 2.585938 -5.25 2.53125 -4.785156 2.46875 -4.296875 C 2.40625 -3.804688 2.335938 -3.34375 2.265625 -2.90625 C 2.203125 -2.46875 2.140625 -2.09375 2.078125 -1.78125 C 1.992188 -1.375 1.894531 -1.03125 1.78125 -0.75 C 1.664062 -0.46875 1.515625 -0.253906 1.328125 -0.109375 C 1.140625 0.0234375 0.894531 0.09375 0.59375 0.09375 C 0.488281 0.09375 0.382812 0.0820312 0.28125 0.0625 C 0.175781 0.0390625 0.0859375 0.015625 0.015625 -0.015625 L 0.015625 -0.6875 C 0.078125 -0.65625 0.148438 -0.628906 0.234375 -0.609375 C 0.316406 -0.585938 0.40625 -0.578125 0.5 -0.578125 C 0.675781 -0.578125 0.816406 -0.648438 0.921875 -0.796875 C 1.023438 -0.941406 1.101562 -1.125 1.15625 -1.34375 C 1.21875 -1.5625 1.273438 -1.773438 1.328125 -1.984375 C 1.378906 -2.210938 1.4375 -2.546875 1.5 -2.984375 C 1.570312 -3.429688 1.644531 -3.945312 1.71875 -4.53125 C 1.800781 -5.113281 1.882812 -5.738281 1.96875 -6.40625 L 5.484375 -6.40625 Z M 5.484375 0"/></g><g id="i"><path d="M 4.890625 0 L 4.109375 -1.984375 L 1.578125 -1.984375 L 0.8125 0 L 0 0 L 2.5 -6.4375 L 3.234375 -6.4375 L 5.71875 0 Z M 3.875 -2.703125 L 3.15625 -4.640625 C 3.132812 -4.679688 3.101562 -4.765625 3.0625 -4.890625 C 3.019531 -5.015625 2.976562 -5.144531 2.9375 -5.28125 C 2.90625 -5.414062 2.878906 -5.519531 2.859375 -5.59375 C 2.804688 -5.40625 2.753906 -5.222656 2.703125 -5.046875 C 2.648438 -4.878906 2.609375 -4.742188 2.578125 -4.640625 L 1.84375 -2.703125 Z M 3.875 -2.703125"/></g><g id="j"><path d="M 0.875 -6.40625 L 1.625 -6.40625 L 1.625 -2.890625 C 1.625 -2.679688 1.617188 -2.457031 1.609375 -2.21875 C 1.609375 -1.976562 1.601562 -1.753906 1.59375 -1.546875 C 1.582031 -1.335938 1.570312 -1.191406 1.5625 -1.109375 L 1.609375 -1.109375 L 5.125 -6.40625 L 6.03125 -6.40625 L 6.03125 0 L 5.28125 0 L 5.28125 -3.484375 C 5.28125 -3.691406 5.28125 -3.921875 5.28125 -4.171875 C 5.289062 -4.429688 5.300781 -4.664062 5.3125 -4.875 C 5.332031 -5.082031 5.34375 -5.234375 5.34375 -5.328125 L 5.3125 -5.328125 L 1.78125 0 L 0.875 0 Z M 5.25 -8.796875 C 5.207031 -8.347656 5.054688 -8.007812 4.796875 -7.78125 C 4.535156 -7.550781 4.125 -7.4375 3.5625 -7.4375 C 2.96875 -7.4375 2.550781 -7.546875 2.3125 -7.765625 C 2.070312 -7.992188 1.9375 -8.335938 1.90625 -8.796875 L 2.640625 -8.796875 C 2.671875 -8.472656 2.753906 -8.253906 2.890625 -8.140625 C 3.023438 -8.035156 3.253906 -7.984375 3.578125 -7.984375 C 3.847656 -7.984375 4.0625 -8.039062 4.21875 -8.15625 C 4.382812 -8.269531 4.476562 -8.484375 4.5 -8.796875 Z M 5.25 -8.796875"/></g><g id="l"><path d="M 3.6875 0 L 1.59375 -5.609375 L 1.546875 -5.609375 C 1.566406 -5.429688 1.582031 -5.179688 1.59375 -4.859375 C 1.601562 -4.546875 1.609375 -4.222656 1.609375 -3.890625 L 1.609375 0 L 0.875 0 L 0.875 -6.40625 L 2.0625 -6.40625 L 4.03125 -1.15625 L 4.078125 -1.15625 L 6.078125 -6.40625 L 7.265625 -6.40625 L 7.265625 0 L 6.46875 0 L 6.46875 -3.9375 C 6.46875 -4.25 6.472656 -4.554688 6.484375 -4.859375 C 6.503906 -5.160156 6.519531 -5.410156 6.53125 -5.609375 L 6.5 -5.609375 L 4.359375 0 Z M 3.6875 0"/></g><g id="m"><path d="M 2.5625 -6.40625 C 3.40625 -6.40625 4.015625 -6.238281 4.390625 -5.90625 C 4.773438 -5.582031 4.96875 -5.117188 4.96875 -4.515625 C 4.96875 -4.160156 4.890625 -3.828125 4.734375 -3.515625 C 4.578125 -3.210938 4.3125 -2.96875 3.9375 -2.78125 C 3.5625 -2.59375 3.050781 -2.5 2.40625 -2.5 L 1.671875 -2.5 L 1.671875 0 L 0.875 0 L 0.875 -6.40625 Z M 2.5 -5.71875 L 1.671875 -5.71875 L 1.671875 -3.1875 L 2.328125 -3.1875 C 2.929688 -3.1875 3.382812 -3.285156 3.6875 -3.484375 C 3.988281 -3.679688 4.140625 -4.015625 4.140625 -4.484375 C 4.140625 -4.898438 4.003906 -5.207031 3.734375 -5.40625 C 3.472656 -5.613281 3.0625 -5.71875 2.5 -5.71875 Z M 2.5 -5.71875"/></g><g id="n"><path d="M 5.546875 0 L 4.578125 0 L 1.671875 -3.25 L 1.671875 0 L 0.875 0 L 0.875 -6.40625 L 1.671875 -6.40625 L 1.671875 -3.296875 L 4.5 -6.40625 L 5.421875 -6.40625 L 2.640625 -3.296875 Z M 5.546875 0"/></g><g id="o"><path d="M 4.453125 0 L 0.875 0 L 0.875 -6.40625 L 4.453125 -6.40625 L 4.453125 -5.6875 L 1.671875 -5.6875 L 1.671875 -3.6875 L 4.28125 -3.6875 L 4.28125 -3 L 1.671875 -3 L 1.671875 -0.703125 L 4.453125 -0.703125 Z M 4.453125 0"/></g><g id="p"><path d="M 2.890625 0 L 2.09375 0 L 2.09375 -5.6875 L 0.09375 -5.6875 L 0.09375 -6.40625 L 4.890625 -6.40625 L 4.890625 -5.6875 L 2.890625 -5.6875 Z M 2.890625 0"/></g><g id="k"><path d="M 2.484375 -2.25 L 0.40625 -2.25 L 0.40625 -2.59375 L 2.484375 -2.59375 Z M 2.484375 -2.25"/></g><g id="a"><path d="M 10.226562 -8.859375 C 11.800781 -9.621094 12.804688 -10.90625 12.804688 -12.515625 C 12.804688 -15.257812 10.503906 -16.878906 7.308594 -16.878906 C 3.851562 -16.878906 1.621094 -15.117188 1.621094 -12.195312 C 1.621094 -11.96875 1.753906 -11.835938 1.96875 -11.8125 L 3.742188 -11.625 C 3.96875 -11.597656 4.113281 -11.71875 4.125 -11.957031 C 4.21875 -13.566406 5.449219 -14.542969 7.308594 -14.542969 C 9.058594 -14.542969 10.324219 -13.699219 10.324219 -12.289062 C 10.324219 -11.015625 9.394531 -9.738281 6.34375 -9.738281 C 6.089844 -9.738281 5.972656 -9.585938 5.972656 -9.371094 L 5.972656 -8.070312 C 5.972656 -7.855469 6.089844 -7.714844 6.332031 -7.714844 C 9.429688 -7.714844 10.730469 -6.449219 10.730469 -4.863281 C 10.730469 -3.125 9.347656 -2.039062 7.285156 -2.039062 C 5.222656 -2.039062 4.003906 -3.015625 3.910156 -4.625 C 3.898438 -4.863281 3.753906 -4.984375 3.527344 -4.960938 L 1.753906 -4.769531 C 1.539062 -4.746094 1.417969 -4.613281 1.417969 -4.386719 C 1.417969 -1.464844 3.613281 0.308594 7.199219 0.308594 C 10.992188 0.308594 13.433594 -1.621094 13.433594 -4.660156 C 13.433594 -6.769531 12.050781 -8.179688 10.226562 -8.859375 Z M 10.226562 -8.859375"/></g><g id="b"><path d="M 12.527344 -2.394531 L 4.578125 -2.394531 L 4.578125 -7.425781 L 11.886719 -7.425781 C 12.101562 -7.425781 12.242188 -7.570312 12.242188 -7.785156 L 12.242188 -9.464844 C 12.242188 -9.679688 12.101562 -9.824219 11.886719 -9.824219 L 4.578125 -9.824219 L 4.578125 -14.292969 L 12.503906 -14.292969 C 12.71875 -14.292969 12.863281 -14.4375 12.863281 -14.652344 L 12.863281 -16.332031 C 12.863281 -16.546875 12.71875 -16.691406 12.503906 -16.691406 L 2.265625 -16.691406 C 2.050781 -16.691406 1.90625 -16.546875 1.90625 -16.332031 L 1.90625 -0.359375 C 1.90625 -0.144531 2.050781 0 2.265625 0 L 12.527344 0 C 12.742188 0 12.886719 -0.144531 12.886719 -0.359375 L 12.886719 -2.039062 C 12.886719 -2.253906 12.742188 -2.394531 12.527344 -2.394531 Z M 12.527344 -2.394531"/></g><g id="c"><path d="M 12.648438 -16.691406 L 3.289062 -16.691406 C 3.074219 -16.691406 2.933594 -16.546875 2.933594 -16.332031 L 2.933594 -5.066406 C 2.933594 -3.074219 2.015625 -2.359375 0.429688 -2.242188 C 0.285156 -2.230469 0.214844 -2.121094 0.261719 -1.980469 L 0.835938 -0.046875 C 0.871094 0.0703125 0.964844 0.15625 1.109375 0.15625 C 3.742188 0.15625 5.601562 -1.300781 5.601562 -4.660156 L 5.601562 -14.292969 L 10.324219 -14.292969 L 10.324219 -0.359375 C 10.324219 -0.144531 10.46875 0 10.679688 0 L 12.648438 0 C 12.863281 0 13.007812 -0.144531 13.007812 -0.359375 L 13.007812 -16.332031 C 13.007812 -16.546875 12.863281 -16.691406 12.648438 -16.691406 Z M 12.648438 -16.691406"/></g><g id="d"><path d="M 12.589844 -16.691406 L 10.632812 -16.691406 C 10.417969 -16.691406 10.277344 -16.546875 10.277344 -16.332031 L 10.277344 -9.679688 L 4.386719 -9.679688 L 4.386719 -16.332031 C 4.386719 -16.546875 4.242188 -16.691406 4.03125 -16.691406 L 2.074219 -16.691406 C 1.859375 -16.691406 1.714844 -16.546875 1.714844 -16.332031 L 1.714844 -0.359375 C 1.714844 -0.144531 1.859375 0 2.074219 0 L 4.03125 0 C 4.242188 0 4.386719 -0.144531 4.386719 -0.359375 L 4.386719 -7.285156 L 10.277344 -7.285156 L 10.277344 -0.359375 C 10.277344 -0.144531 10.417969 0 10.632812 0 L 12.589844 0 C 12.804688 0 12.945312 -0.144531 12.945312 -0.359375 L 12.945312 -16.332031 C 12.945312 -16.546875 12.804688 -16.691406 12.589844 -16.691406 Z M 12.589844 -16.691406"/></g><g id="e"><path d="M 7.855469 0 C 12.089844 0 13.257812 -1.859375 13.257812 -5.339844 C 13.257812 -8.832031 12.089844 -10.695312 7.855469 -10.695312 L 4.445312 -10.695312 L 4.445312 -16.332031 C 4.445312 -16.546875 4.304688 -16.691406 4.089844 -16.691406 L 2.132812 -16.691406 C 1.917969 -16.691406 1.777344 -16.546875 1.777344 -16.332031 L 1.777344 -0.359375 C 1.777344 -0.144531 1.917969 0 2.132812 0 Z M 7.855469 -8.296875 C 9.871094 -8.296875 10.679688 -7.953125 10.679688 -5.339844 C 10.679688 -2.742188 9.871094 -2.394531 7.855469 -2.394531 L 4.445312 -2.394531 L 4.445312 -8.296875 Z M 7.855469 -8.296875"/></g><clipPath id="q"><path d="M 2.40625 22 L 21 22 L 21 40.5 L 2.40625 40.5 Z M 2.40625 22"/></clipPath><clipPath id="r"><path d="M 16 4.5 L 30 4.5 L 30 31 L 16 31 Z M 16 4.5"/></clipPath><clipPath id="s"><path d="M 25 22 L 43.65625 22 L 43.65625 40.5 L 25 40.5 Z M 25 22"/></clipPath></defs><g fill="#63A60F"><use x="53.711" y="24.015" xmlns:xlink="http://www.w3.org/1999/xlink" xlink:href="#a" xlink:type="simple" xlink:actuate="onLoad" xlink:show="embed"/></g><g fill="#63A60F"><use x="68.871" y="24.015" xmlns:xlink="http://www.w3.org/1999/xlink" xlink:href="#b" xlink:type="simple" xlink:actuate="onLoad" xlink:show="embed"/></g><g fill="#63A60F"><use x="84.031" y="24.015" xmlns:xlink="http://www.w3.org/1999/xlink" xlink:href="#c" xlink:type="simple" xlink:actuate="onLoad" xlink:show="embed"/></g><g fill="#63A60F"><use x="99.191" y="24.015" xmlns:xlink="http://www.w3.org/1999/xlink" xlink:href="#b" xlink:type="simple" xlink:actuate="onLoad" xlink:show="embed"/></g><g fill="#63A60F"><use x="114.351" y="24.015" xmlns:xlink="http://www.w3.org/1999/xlink" xlink:href="#d" xlink:type="simple" xlink:actuate="onLoad" xlink:show="embed"/></g><g fill="#63A60F"><use x="129.51" y="24.015" xmlns:xlink="http://www.w3.org/1999/xlink" xlink:href="#e" xlink:type="simple" xlink:actuate="onLoad" xlink:show="embed"/></g><g fill="#63A60F"><use x="60.462" y="38.254" xmlns:xlink="http://www.w3.org/1999/xlink" xlink:href="#f" xlink:type="simple" xlink:actuate="onLoad" xlink:show="embed"/></g><g fill="#63A60F"><use x="67.467" y="38.254" xmlns:xlink="http://www.w3.org/1999/xlink" xlink:href="#g" xlink:type="simple" xlink:actuate="onLoad" xlink:show="embed"/></g><g fill="#63A60F"><use x="74.114" y="38.254" xmlns:xlink="http://www.w3.org/1999/xlink" xlink:href="#h" xlink:type="simple" xlink:actuate="onLoad" xlink:show="embed"/></g><g fill="#63A60F"><use x="80.464" y="38.254" xmlns:xlink="http://www.w3.org/1999/xlink" xlink:href="#i" xlink:type="simple" xlink:actuate="onLoad" xlink:show="embed"/></g><g fill="#63A60F"><use x="86.196" y="38.254" xmlns:xlink="http://www.w3.org/1999/xlink" xlink:href="#j" xlink:type="simple" xlink:actuate="onLoad" xlink:show="embed"/></g><g fill="#63A60F"><use x="93.084" y="38.254" xmlns:xlink="http://www.w3.org/1999/xlink" xlink:href="#g" xlink:type="simple" xlink:actuate="onLoad" xlink:show="embed"/></g><g fill="#63A60F"><use x="99.731" y="38.254" xmlns:xlink="http://www.w3.org/1999/xlink" xlink:href="#k" xlink:type="simple" xlink:actuate="onLoad" xlink:show="embed"/></g><g fill="#63A60F"><use x="102.617" y="38.254" xmlns:xlink="http://www.w3.org/1999/xlink" xlink:href="#l" xlink:type="simple" xlink:actuate="onLoad" xlink:show="embed"/></g><g fill="#63A60F"><use x="110.752" y="38.254" xmlns:xlink="http://www.w3.org/1999/xlink" xlink:href="#i" xlink:type="simple" xlink:actuate="onLoad" xlink:show="embed"/></g><g fill="#63A60F"><use x="116.484" y="38.254" xmlns:xlink="http://www.w3.org/1999/xlink" xlink:href="#m" xlink:type="simple" xlink:actuate="onLoad" xlink:show="embed"/></g><g fill="#63A60F"><use x="121.911" y="38.254" xmlns:xlink="http://www.w3.org/1999/xlink" xlink:href="#n" xlink:type="simple" xlink:actuate="onLoad" xlink:show="embed"/></g><g fill="#63A60F"><use x="127.454" y="38.254" xmlns:xlink="http://www.w3.org/1999/xlink" xlink:href="#o" xlink:type="simple" xlink:actuate="onLoad" xlink:show="embed"/></g><g fill="#63A60F"><use x="132.441" y="38.254" xmlns:xlink="http://www.w3.org/1999/xlink" xlink:href="#p" xlink:type="simple" xlink:actuate="onLoad" xlink:show="embed"/></g><path fill="#63A60F" d="M 3.753906 23.0625 C 3.753906 23.0625 19.722656 21.949219 19.832031 39.402344 C 2.65625 39.292969 3.753906 23.0625 3.753906 23.0625 Z M 3.753906 23.0625"/><g clip-path="url(#q)"><path fill="#63A60F" d="M 20.765625 40.351562 L 19.828125 40.34375 C 14.289062 40.308594 9.980469 38.648438 7.019531 35.410156 C 2.386719 30.339844 2.804688 23.292969 2.828125 22.996094 L 2.882812 22.179688 L 3.6875 22.121094 C 3.6875 22.121094 3.914062 22.105469 4.316406 22.105469 C 7.046875 22.105469 20.660156 22.9375 20.761719 39.394531 Z M 4.671875 23.996094 C 4.726562 25.921875 5.195312 30.648438 8.390625 34.140625 C 10.820312 36.789062 14.34375 38.230469 18.882812 38.433594 C 18.324219 25.496094 8.335938 24.074219 4.671875 23.996094 Z M 4.671875 23.996094"/></g><path fill="#63A60F" d="M 22.777344 5.886719 C 22.777344 5.886719 34.84375 16.578125 22.777344 28.996094 C 10.710938 16.578125 22.777344 5.886719 22.777344 5.886719 Z M 22.777344 5.886719"/><g clip-path="url(#r)"><path fill="#63A60F" d="M 22.777344 30.339844 L 22.117188 29.660156 C 18.222656 25.652344 16.332031 21.382812 16.496094 16.96875 C 16.75 10.054688 21.945312 5.371094 22.167969 5.175781 L 22.777344 4.636719 L 23.386719 5.175781 C 23.609375 5.371094 28.804688 10.054688 29.058594 16.96875 C 29.222656 21.382812 27.332031 25.652344 23.4375 29.660156 Z M 22.777344 7.210938 C 21.472656 8.613281 18.519531 12.292969 18.351562 17.054688 C 18.222656 20.671875 19.710938 24.226562 22.777344 27.628906 C 25.84375 24.226562 27.332031 20.671875 27.203125 17.054688 C 27.035156 12.292969 24.082031 8.613281 22.777344 7.210938 Z M 22.777344 7.210938"/></g><path fill="#63A60F" d="M 42.25 23.0625 C 42.25 23.0625 26.28125 21.949219 26.171875 39.402344 C 43.347656 39.292969 42.25 23.0625 42.25 23.0625 Z M 42.25 23.0625"/><g clip-path="url(#s)"><path fill="#63A60F" d="M 25.234375 40.351562 L 25.242188 39.394531 C 25.347656 22.9375 38.957031 22.105469 41.6875 22.105469 C 42.085938 22.105469 42.316406 22.121094 42.316406 22.121094 L 43.121094 22.179688 L 43.179688 22.996094 C 43.199219 23.292969 43.617188 30.335938 38.984375 35.410156 C 36.027344 38.648438 31.71875 40.308594 26.175781 40.34375 Z M 41.332031 23.996094 C 37.667969 24.074219 27.679688 25.496094 27.121094 38.433594 C 31.667969 38.230469 35.195312 36.785156 37.625 34.125 C 40.824219 30.625 41.285156 25.914062 41.332031 23.996094 Z M 41.332031 23.996094"/></g></svg>